<mxfile host="65bd71144e">
    <diagram id="qUVWwDpglpRJPyb74w3B" name="Data">
        <mxGraphModel dx="1358" dy="647" grid="1" gridSize="13" guides="1" tooltips="1" connect="1" arrows="1" fold="1" page="1" pageScale="1" pageWidth="1100" pageHeight="1700" math="0" shadow="0">
            <root>
                <mxCell id="0"/>
                <mxCell id="1" parent="0"/>
                <mxCell id="4" style="edgeStyle=none;html=1;exitX=0.5;exitY=0;exitDx=0;exitDy=0;entryX=0.25;entryY=1;entryDx=0;entryDy=0;" parent="1" source="2" target="3" edge="1">
                    <mxGeometry relative="1" as="geometry">
                        <mxPoint x="80" y="500" as="targetPoint"/>
                    </mxGeometry>
                </mxCell>
                <mxCell id="19" style="edgeStyle=none;html=1;entryX=0;entryY=1;entryDx=0;entryDy=0;" parent="1" source="2" target="5" edge="1">
                    <mxGeometry relative="1" as="geometry"/>
                </mxCell>
                <mxCell id="2" value="Canadian Weather csv data" style="whiteSpace=wrap;html=1;" parent="1" vertex="1">
                    <mxGeometry x="20" y="660" width="120" height="60" as="geometry"/>
                </mxCell>
                <mxCell id="14" style="edgeStyle=none;html=1;entryX=0;entryY=0.5;entryDx=0;entryDy=0;" parent="1" source="3" target="12" edge="1">
                    <mxGeometry relative="1" as="geometry"/>
                </mxCell>
                <mxCell id="3" value="Historical Data" style="whiteSpace=wrap;html=1;" parent="1" vertex="1">
                    <mxGeometry x="130" y="540" width="110" height="60" as="geometry"/>
                </mxCell>
                <mxCell id="13" style="edgeStyle=none;html=1;" parent="1" source="5" target="12" edge="1">
                    <mxGeometry relative="1" as="geometry"/>
                </mxCell>
                <mxCell id="5" value="weather-data{current-year}.csv" style="whiteSpace=wrap;html=1;" parent="1" vertex="1">
                    <mxGeometry x="130" y="420" width="170" height="40" as="geometry"/>
                </mxCell>
                <mxCell id="9" style="edgeStyle=none;html=1;exitX=1;exitY=1;exitDx=0;exitDy=0;" parent="1" source="8" target="5" edge="1">
                    <mxGeometry relative="1" as="geometry"/>
                </mxCell>
                <mxCell id="8" value="Canadain Weather API" style="whiteSpace=wrap;html=1;" parent="1" vertex="1">
                    <mxGeometry x="30" y="320" width="120" height="60" as="geometry"/>
                </mxCell>
                <mxCell id="23" style="edgeStyle=none;html=1;" parent="1" source="10" target="21" edge="1">
                    <mxGeometry relative="1" as="geometry"/>
                </mxCell>
                <mxCell id="10" value="Historical Weather Predictions" style="whiteSpace=wrap;html=1;" parent="1" vertex="1">
                    <mxGeometry x="365" y="210" width="120" height="60" as="geometry"/>
                </mxCell>
                <mxCell id="22" style="edgeStyle=none;html=1;" parent="1" source="11" target="21" edge="1">
                    <mxGeometry relative="1" as="geometry"/>
                </mxCell>
                <mxCell id="11" value="weather-predictions{current-year}.csv" style="whiteSpace=wrap;html=1;" parent="1" vertex="1">
                    <mxGeometry x="160" y="260" width="175" height="60" as="geometry"/>
                </mxCell>
                <mxCell id="26" style="edgeStyle=none;html=1;" parent="1" source="12" target="24" edge="1">
                    <mxGeometry relative="1" as="geometry"/>
                </mxCell>
                <mxCell id="12" value="Past weather data csv" style="whiteSpace=wrap;html=1;" parent="1" vertex="1">
                    <mxGeometry x="320" y="490" width="120" height="60" as="geometry"/>
                </mxCell>
                <mxCell id="18" style="edgeStyle=none;html=1;" parent="1" source="15" target="11" edge="1">
                    <mxGeometry relative="1" as="geometry"/>
                </mxCell>
                <mxCell id="15" value="Weather API" style="whiteSpace=wrap;html=1;" parent="1" vertex="1">
                    <mxGeometry x="40" y="180" width="120" height="60" as="geometry"/>
                </mxCell>
                <mxCell id="17" style="edgeStyle=none;html=1;entryX=0;entryY=0;entryDx=0;entryDy=0;" parent="1" source="16" target="10" edge="1">
                    <mxGeometry relative="1" as="geometry"/>
                </mxCell>
                <mxCell id="20" style="edgeStyle=none;html=1;" parent="1" source="16" target="11" edge="1">
                    <mxGeometry relative="1" as="geometry"/>
                </mxCell>
                <mxCell id="16" value="Kaggle csv or Canadian Government csv" style="whiteSpace=wrap;html=1;" parent="1" vertex="1">
                    <mxGeometry x="170" y="100" width="120" height="60" as="geometry"/>
                </mxCell>
                <mxCell id="25" style="edgeStyle=none;html=1;" parent="1" source="21" target="24" edge="1">
                    <mxGeometry relative="1" as="geometry"/>
                </mxCell>
                <mxCell id="21" value="Past prediction data csv" style="whiteSpace=wrap;html=1;" parent="1" vertex="1">
                    <mxGeometry x="360" y="330" width="120" height="60" as="geometry"/>
                </mxCell>
                <mxCell id="28" style="edgeStyle=none;html=1;" parent="1" source="24" target="27" edge="1">
                    <mxGeometry relative="1" as="geometry"/>
                </mxCell>
                <mxCell id="24" value="AI Earth weather data" style="whiteSpace=wrap;html=1;" parent="1" vertex="1">
                    <mxGeometry x="485" y="450" width="120" height="60" as="geometry"/>
                </mxCell>
                <mxCell id="27" value="Data json or seperate csv files" style="whiteSpace=wrap;html=1;" parent="1" vertex="1">
                    <mxGeometry x="630" y="590" width="120" height="60" as="geometry"/>
                </mxCell>
                <mxCell id="41" style="edgeStyle=none;html=1;" parent="1" source="29" target="27" edge="1">
                    <mxGeometry relative="1" as="geometry"/>
                </mxCell>
                <mxCell id="29" value="Space Data" style="whiteSpace=wrap;html=1;" parent="1" vertex="1">
                    <mxGeometry x="442" y="600" width="120" height="60" as="geometry"/>
                </mxCell>
                <mxCell id="35" style="edgeStyle=none;html=1;" parent="1" source="30" target="29" edge="1">
                    <mxGeometry relative="1" as="geometry"/>
                </mxCell>
                <mxCell id="30" value="Space Events" style="whiteSpace=wrap;html=1;" parent="1" vertex="1">
                    <mxGeometry x="180" y="663" width="120" height="60" as="geometry"/>
                </mxCell>
                <mxCell id="36" style="edgeStyle=none;html=1;" parent="1" source="33" target="29" edge="1">
                    <mxGeometry relative="1" as="geometry">
                        <mxPoint x="481" y="741" as="targetPoint"/>
                    </mxGeometry>
                </mxCell>
                <mxCell id="33" value="Satalight Images" style="whiteSpace=wrap;html=1;" parent="1" vertex="1">
                    <mxGeometry x="335" y="702" width="120" height="60" as="geometry"/>
                </mxCell>
                <mxCell id="39" style="edgeStyle=none;html=1;entryX=0;entryY=0.75;entryDx=0;entryDy=0;" parent="1" source="37" target="33" edge="1">
                    <mxGeometry relative="1" as="geometry"/>
                </mxCell>
                <mxCell id="37" value="Earth Images" style="whiteSpace=wrap;html=1;" parent="1" vertex="1">
                    <mxGeometry x="200" y="754" width="120" height="60" as="geometry"/>
                </mxCell>
                <mxCell id="40" style="edgeStyle=none;html=1;" parent="1" source="38" target="33" edge="1">
                    <mxGeometry relative="1" as="geometry"/>
                </mxCell>
                <mxCell id="38" value="Space Images" style="whiteSpace=wrap;html=1;" parent="1" vertex="1">
                    <mxGeometry x="290" y="820" width="120" height="60" as="geometry"/>
                </mxCell>
                <mxCell id="49" style="edgeStyle=none;html=1;entryX=0.25;entryY=1;entryDx=0;entryDy=0;" parent="1" source="42" target="48" edge="1">
                    <mxGeometry relative="1" as="geometry"/>
                </mxCell>
                <mxCell id="42" value="Nasa Data" style="whiteSpace=wrap;html=1;" parent="1" vertex="1">
                    <mxGeometry x="20" y="845" width="120" height="60" as="geometry"/>
                </mxCell>
                <mxCell id="45" style="edgeStyle=none;html=1;" parent="1" source="43" target="42" edge="1">
                    <mxGeometry relative="1" as="geometry"/>
                </mxCell>
                <mxCell id="43" value="Historical Nasa Csv data" style="whiteSpace=wrap;html=1;" parent="1" vertex="1">
                    <mxGeometry x="150" y="962" width="120" height="60" as="geometry"/>
                </mxCell>
                <mxCell id="46" style="edgeStyle=none;html=1;" parent="1" source="44" target="42" edge="1">
                    <mxGeometry relative="1" as="geometry"/>
                </mxCell>
                <mxCell id="44" value="Current Nasa Api data" style="whiteSpace=wrap;html=1;" parent="1" vertex="1">
                    <mxGeometry x="10" y="962" width="120" height="60" as="geometry"/>
                </mxCell>
                <mxCell id="50" style="edgeStyle=none;html=1;" parent="1" source="48" target="30" edge="1">
                    <mxGeometry relative="1" as="geometry"/>
                </mxCell>
                <mxCell id="51" style="edgeStyle=none;html=1;" parent="1" source="48" target="37" edge="1">
                    <mxGeometry relative="1" as="geometry"/>
                </mxCell>
                <mxCell id="52" style="edgeStyle=none;html=1;entryX=0;entryY=0.5;entryDx=0;entryDy=0;" parent="1" source="48" target="38" edge="1">
                    <mxGeometry relative="1" as="geometry"/>
                </mxCell>
                <mxCell id="48" value="Image to binary module" style="whiteSpace=wrap;html=1;" parent="1" vertex="1">
                    <mxGeometry x="50" y="754" width="120" height="60" as="geometry"/>
                </mxCell>
                <mxCell id="54" style="edgeStyle=none;html=1;" parent="1" source="53" target="27" edge="1">
                    <mxGeometry relative="1" as="geometry"/>
                </mxCell>
                <mxCell id="53" value="Correlation matrix" style="whiteSpace=wrap;html=1;" parent="1" vertex="1">
                    <mxGeometry x="572" y="312" width="120" height="60" as="geometry"/>
                </mxCell>
            </root>
        </mxGraphModel>
    </diagram>
    <diagram id="MqYAI4Vh4GHzruHNMsC0" name="Building an environment">
        <mxGraphModel dx="1358" dy="647" grid="1" gridSize="13" guides="1" tooltips="1" connect="1" arrows="1" fold="1" page="1" pageScale="1" pageWidth="1100" pageHeight="1700" math="0" shadow="0">
            <root>
                <mxCell id="0"/>
                <mxCell id="1" parent="0"/>
                <mxCell id="hpi9cItQFF7n02g0fKpF-24" style="edgeStyle=none;html=1;entryX=0.25;entryY=0;entryDx=0;entryDy=0;" parent="1" source="hpi9cItQFF7n02g0fKpF-1" target="hpi9cItQFF7n02g0fKpF-23" edge="1">
                    <mxGeometry relative="1" as="geometry"/>
                </mxCell>
                <mxCell id="hpi9cItQFF7n02g0fKpF-1" value="__init__,py" style="whiteSpace=wrap;html=1;" parent="1" vertex="1">
                    <mxGeometry x="156" y="273" width="120" height="60" as="geometry"/>
                </mxCell>
                <mxCell id="hpi9cItQFF7n02g0fKpF-7" style="edgeStyle=none;html=1;entryX=0.75;entryY=0;entryDx=0;entryDy=0;" parent="1" source="hpi9cItQFF7n02g0fKpF-6" target="hpi9cItQFF7n02g0fKpF-1" edge="1">
                    <mxGeometry relative="1" as="geometry"/>
                </mxCell>
                <mxCell id="hpi9cItQFF7n02g0fKpF-6" value="Tutorial&lt;br&gt;https://youtu.be/ZxXKISVkH6Y?si=dFxkLInfUnPKVG3W&amp;amp;t=29" style="whiteSpace=wrap;html=1;" parent="1" vertex="1">
                    <mxGeometry y="156" width="221" height="60" as="geometry"/>
                </mxCell>
                <mxCell id="hpi9cItQFF7n02g0fKpF-25" style="edgeStyle=none;html=1;" parent="1" source="hpi9cItQFF7n02g0fKpF-9" target="hpi9cItQFF7n02g0fKpF-23" edge="1">
                    <mxGeometry relative="1" as="geometry"/>
                </mxCell>
                <mxCell id="hpi9cItQFF7n02g0fKpF-9" value="envs" style="whiteSpace=wrap;html=1;" parent="1" vertex="1">
                    <mxGeometry x="387" y="273" width="120" height="60" as="geometry"/>
                </mxCell>
                <mxCell id="hpi9cItQFF7n02g0fKpF-11" style="edgeStyle=none;html=1;entryX=1;entryY=0;entryDx=0;entryDy=0;" parent="1" source="hpi9cItQFF7n02g0fKpF-10" target="hpi9cItQFF7n02g0fKpF-9" edge="1">
                    <mxGeometry relative="1" as="geometry"/>
                </mxCell>
                <mxCell id="hpi9cItQFF7n02g0fKpF-10" value="__init__.py" style="whiteSpace=wrap;html=1;" parent="1" vertex="1">
                    <mxGeometry x="550" y="169" width="120" height="60" as="geometry"/>
                </mxCell>
                <mxCell id="hpi9cItQFF7n02g0fKpF-13" style="edgeStyle=none;html=1;entryX=1;entryY=0.25;entryDx=0;entryDy=0;" parent="1" source="hpi9cItQFF7n02g0fKpF-12" target="hpi9cItQFF7n02g0fKpF-10" edge="1">
                    <mxGeometry relative="1" as="geometry"/>
                </mxCell>
                <mxCell id="hpi9cItQFF7n02g0fKpF-12" value="Tutorial&lt;br&gt;https://youtu.be/ZxXKISVkH6Y?si=1CuDc53OWM9f8lIv&amp;amp;t=34" style="whiteSpace=wrap;html=1;" parent="1" vertex="1">
                    <mxGeometry x="598" y="52" width="221" height="60" as="geometry"/>
                </mxCell>
                <mxCell id="hpi9cItQFF7n02g0fKpF-17" style="edgeStyle=none;html=1;" parent="1" source="hpi9cItQFF7n02g0fKpF-14" target="hpi9cItQFF7n02g0fKpF-15" edge="1">
                    <mxGeometry relative="1" as="geometry">
                        <mxPoint x="416" y="117" as="targetPoint"/>
                    </mxGeometry>
                </mxCell>
                <mxCell id="hpi9cItQFF7n02g0fKpF-14" value="Tutorial:&lt;br&gt;https://youtu.be/ZxXKISVkH6Y?si=e11XtPKV9EUc02aY&amp;amp;t=38" style="whiteSpace=wrap;html=1;" parent="1" vertex="1">
                    <mxGeometry x="387" y="58.5" width="182" height="47" as="geometry"/>
                </mxCell>
                <mxCell id="hpi9cItQFF7n02g0fKpF-16" style="edgeStyle=none;html=1;" parent="1" source="hpi9cItQFF7n02g0fKpF-15" target="hpi9cItQFF7n02g0fKpF-9" edge="1">
                    <mxGeometry relative="1" as="geometry"/>
                </mxCell>
                <mxCell id="hpi9cItQFF7n02g0fKpF-15" value="custom_env.py" style="whiteSpace=wrap;html=1;" parent="1" vertex="1">
                    <mxGeometry x="403" y="169" width="120" height="60" as="geometry"/>
                </mxCell>
                <mxCell id="hpi9cItQFF7n02g0fKpF-19" style="edgeStyle=none;html=1;entryX=0;entryY=0;entryDx=0;entryDy=0;" parent="1" source="hpi9cItQFF7n02g0fKpF-18" target="hpi9cItQFF7n02g0fKpF-9" edge="1">
                    <mxGeometry relative="1" as="geometry"/>
                </mxCell>
                <mxCell id="hpi9cItQFF7n02g0fKpF-18" value="weatherEnvironment.py" style="whiteSpace=wrap;html=1;" parent="1" vertex="1">
                    <mxGeometry x="257" y="169" width="133" height="60" as="geometry"/>
                </mxCell>
                <mxCell id="hpi9cItQFF7n02g0fKpF-22" style="edgeStyle=none;html=1;entryX=0.5;entryY=0;entryDx=0;entryDy=0;" parent="1" source="hpi9cItQFF7n02g0fKpF-21" target="hpi9cItQFF7n02g0fKpF-18" edge="1">
                    <mxGeometry relative="1" as="geometry"/>
                </mxCell>
                <mxCell id="hpi9cItQFF7n02g0fKpF-21" value="Tutorial:&lt;br&gt;https://youtu.be/ZxXKISVkH6Y?si=L1xLhGW_vcxjbDyC&amp;amp;t=115" style="whiteSpace=wrap;html=1;" parent="1" vertex="1">
                    <mxGeometry x="182" y="45.5" width="172" height="60" as="geometry"/>
                </mxCell>
                <mxCell id="hpi9cItQFF7n02g0fKpF-23" value="gym_game" style="whiteSpace=wrap;html=1;" parent="1" vertex="1">
                    <mxGeometry x="267" y="390" width="120" height="60" as="geometry"/>
                </mxCell>
                <mxCell id="hpi9cItQFF7n02g0fKpF-26" value="main.py" style="whiteSpace=wrap;html=1;" parent="1" vertex="1">
                    <mxGeometry x="478" y="390" width="120" height="60" as="geometry"/>
                </mxCell>
                <mxCell id="hpi9cItQFF7n02g0fKpF-28" style="edgeStyle=none;html=1;" parent="1" source="hpi9cItQFF7n02g0fKpF-27" target="hpi9cItQFF7n02g0fKpF-26" edge="1">
                    <mxGeometry relative="1" as="geometry"/>
                </mxCell>
                <mxCell id="hpi9cItQFF7n02g0fKpF-27" value="Tutorial&lt;br&gt;https://youtu.be/ZxXKISVkH6Y?si=bpzzheXpyy-gaYHe&amp;amp;t=158" style="whiteSpace=wrap;html=1;" parent="1" vertex="1">
                    <mxGeometry x="569" y="273" width="198" height="60" as="geometry"/>
                </mxCell>
            </root>
        </mxGraphModel>
    </diagram>
</mxfile>